<svg width="64" height="28" viewBox="0 0 64 28" fill="none" xmlns="http://www.w3.org/2000/svg">
    <g clip-path="url(#clip0_256_2549)">
        <path d="M63.3426 12.2637L62.2914 13.9502L61.2402 12.2637H60.5955V15.8326H61.1925V13.2806L62.2723 14.9546H62.2914L63.3807 13.2712V15.8326H63.9873V12.2637H63.3426Z" fill="white" />
        <path d="M58.2517 12.8448H57.156V12.2637H59.9571V12.8448H58.8614V15.8326H58.2517V12.8448Z" fill="white" />
        <path d="M3.65859 18.4856H5.96109L9.63239 27.1204H7.06947L6.45335 25.576H3.11552L2.4994 27.1204H0L3.65859 18.4856ZM5.75149 23.7284L4.7892 21.3028L3.81739 23.7284H5.75149Z" fill="white" />
        <path d="M10.4707 18.5455H12.859V25.039H17.0352V27.1203H10.4707V18.5455Z" fill="white" />
        <path d="M18.0674 18.5455H20.4556V25.039H24.6319V27.1203H18.0674V18.5455Z" fill="white" />
        <path d="M25.6672 18.5455H29.3766C31.5426 18.5455 32.9495 19.6604 32.9495 21.5459V21.5712C32.9495 23.6051 31.387 24.6695 29.2528 24.6695H28.0587V27.1203H25.6704V18.5455H25.6672ZM29.202 22.8093C30.0404 22.8093 30.5708 22.3545 30.5708 21.6817V21.6565C30.5708 20.9206 30.0404 20.5416 29.1924 20.5416H28.0587V22.8093H29.2051H29.202Z" fill="white" />
        <path d="M34.0198 18.5455H36.408V27.1203H34.0198V18.5455Z" fill="white" />
        <path d="M37.9866 18.5455H40.216L43.7635 23.0777V18.5455H46.1295V27.1203H44.0461L40.3494 22.4176V27.1203H37.9834V18.5455H37.9866Z" fill="white" />
        <path d="M47.3711 22.8598V22.8345C47.3711 20.3363 49.3401 18.375 52.0015 18.375C53.5164 18.375 54.5867 18.8266 55.5013 19.6131L54.0976 21.3028C53.4815 20.7879 52.878 20.4942 52.0174 20.4942C50.7724 20.4942 49.8133 21.5238 49.8133 22.8345V22.8598C49.8133 24.2558 50.7851 25.2475 52.1539 25.2475C52.7447 25.2475 53.1893 25.1243 53.5323 24.8938V23.8515H51.8459V22.1113H55.7998V25.9581C54.8884 26.7161 53.6307 27.2941 52.0555 27.2941C49.3687 27.2941 47.3743 25.4559 47.3743 22.8598H47.3711Z" fill="white" />
        <path d="M56.4731 25.8476L57.8038 24.2684C58.6645 24.9411 59.6014 25.298 60.5986 25.298C61.2528 25.298 61.5958 25.0769 61.5958 24.7106V24.6853C61.5958 24.3189 61.3132 24.1326 60.1286 23.8515C58.2929 23.4346 56.8765 22.9198 56.8765 21.1701V21.1448C56.8765 19.5531 58.1437 18.4003 60.2143 18.4003C61.6816 18.4003 62.8249 18.7919 63.7618 19.5404L62.5676 21.2175C61.78 20.6553 60.9162 20.3711 60.154 20.3711C59.576 20.3711 59.2933 20.6048 59.2933 20.9206V20.9459C59.2933 21.3375 59.5887 21.508 60.7955 21.7797C62.7645 22.2092 63.9968 22.844 63.9968 24.4484V24.4737C63.9968 26.2266 62.6057 27.2656 60.5097 27.2656C58.9821 27.2656 57.5402 26.7887 56.47 25.8444L56.4731 25.8476Z" fill="white" />
        <path d="M32.4637 0.527415V0.492674C32.4637 0.492674 32.4573 0.489515 32.4541 0.486357C32.4478 0.48004 32.4382 0.473724 32.4319 0.467407C32.4319 0.467407 32.4255 0.467407 32.4224 0.467407L32.4605 0.527415H32.4637Z" fill="white" />
        <path d="M29.5198 0.429466C28.5734 0.410516 27.7286 0.394724 26.7917 0.404199L29.5198 0.429466Z" fill="white" />
        <path d="M34.5154 0.467407C34.5154 0.467407 34.4868 0.467407 34.4741 0.467407C34.4678 0.473724 34.4614 0.48004 34.4519 0.486357C34.4519 0.486357 34.4456 0.489515 34.4424 0.492674V0.57479L34.5154 0.467407Z" fill="white" />
        <path d="M40.127 0.404199C39.1743 0.394724 38.32 0.410516 37.3577 0.429466L40.127 0.404199Z" fill="white" />
        <path d="M47.6476 2.59296C46.5234 1.09908 44.837 0.214753 42.8997 0.104212C40.5401 -0.0347538 39.1173 -0.00632898 37.3166 0.0315707C36.475 0.0473623 35.5603 0.0663122 34.4392 0.0694705C34.3344 0.0694705 34.2582 0.129478 34.1979 0.180011C34.1788 0.195803 34.1566 0.214753 34.1312 0.230544L34.0423 0.290552V9.71495H36.7735V2.70666C36.9101 2.70666 37.0816 2.70666 37.2816 2.70666C38.4313 2.70034 40.5686 2.68771 41.9946 2.71929C43.2205 2.74456 44.3892 3.20883 45.1959 3.98578C45.739 4.51005 46.1042 5.12593 46.282 5.80812C46.5933 7.01775 46.2693 8.39478 45.4182 9.49387C44.5385 10.6277 43.2586 11.2846 41.9025 11.2941C40.0065 11.3099 38.9902 11.3067 37.6818 11.3036C37.0244 11.3036 36.2908 11.3004 35.3348 11.3004H34.02V16.3758L34.201 16.3948C34.2995 16.4043 34.6044 16.4074 34.9632 16.4074C35.6016 16.4074 36.4114 16.3979 36.5448 16.3948L36.6496 14.0482C36.7036 14.045 36.8497 14.0387 36.9037 14.0355C37.1419 14.0197 37.3769 14.0039 37.6119 14.0039C38.1042 14.0039 38.6187 14.0134 39.13 14.026C42.0073 14.0892 44.9736 14.1555 47.076 12.0331L47.1617 11.9826C47.1617 11.9826 47.1999 11.9321 47.2602 11.8373C47.4412 11.6384 47.6191 11.4204 47.7842 11.1836C49.5849 8.62849 49.5278 5.09434 47.6445 2.59296H47.6476ZM40.8958 11.7015C40.8958 11.7015 40.9053 11.7015 40.9085 11.7015H40.8989H40.8958ZM40.1272 0.404251L37.3579 0.429518C38.3201 0.410568 39.1776 0.394776 40.1272 0.404251ZM34.4519 0.483209C34.4519 0.483209 34.4678 0.470576 34.4742 0.464259C34.49 0.464259 34.5027 0.464259 34.5155 0.464259L34.4424 0.571642V0.489526C34.4424 0.489526 34.4488 0.486367 34.4519 0.483209Z" fill="white" />
        <path d="M29.2275 11.3036C27.9191 11.3067 26.906 11.3099 25.0068 11.2941C23.6539 11.2846 22.3708 10.6277 21.4911 9.49385C20.64 8.39476 20.3161 7.01773 20.6273 5.8081C20.802 5.12275 21.1672 4.51003 21.7134 3.98575C22.5201 3.20881 23.6857 2.74454 24.9147 2.71927C26.3407 2.68769 28.478 2.70032 29.6277 2.70664C29.8278 2.70664 29.9993 2.70664 30.1358 2.70664V9.71493H32.8671V0.287373L32.7782 0.227365C32.7527 0.211573 32.7305 0.192623 32.7115 0.176832C32.6511 0.129457 32.5781 0.0662908 32.4733 0.0662908C31.3522 0.0662908 30.4375 0.047341 29.5959 0.0283911C27.792 -0.00635029 26.3693 -0.0347751 24.0128 0.101032C22.0723 0.214731 20.3859 1.09906 19.2649 2.58978C17.3816 5.09116 17.3244 8.62531 19.1251 11.1804C19.3315 11.4741 19.5507 11.7362 19.7793 11.9731V11.9763C21.8849 14.1524 24.8766 14.086 27.773 14.0197C28.2843 14.0071 32.8861 14.0197 32.8861 14.0197V11.2941H31.5713C30.6154 11.2941 29.8849 11.2941 29.2244 11.2972L29.2275 11.3036ZM32.4542 0.486346C32.4542 0.486346 32.4606 0.489504 32.4637 0.492663V0.527404L32.4256 0.467396C32.4256 0.467396 32.432 0.467396 32.4352 0.467396C32.4415 0.473713 32.4479 0.480029 32.4574 0.486346H32.4542ZM29.5197 0.429497L26.7917 0.40423C27.7285 0.394755 28.5733 0.410547 29.5197 0.429497Z" fill="white" />
        <path d="M41.1053 8.29694C41.8122 8.29694 42.3852 7.72709 42.3852 7.02414C42.3852 6.32119 41.8122 5.75134 41.1053 5.75134C40.3985 5.75134 39.8254 6.32119 39.8254 7.02414C39.8254 7.72709 40.3985 8.29694 41.1053 8.29694Z" fill="#C02026" />
        <path d="M25.515 8.20209C26.2218 8.20209 26.7949 7.63224 26.7949 6.92929C26.7949 6.22635 26.2218 5.65649 25.515 5.65649C24.8081 5.65649 24.2351 6.22635 24.2351 6.92929C24.2351 7.63224 24.8081 8.20209 25.515 8.20209Z" fill="#C02026" />
    </g>
    <defs>
        <clipPath id="clip0_256_2549">
            <rect width="64" height="27.2941" fill="white" />
        </clipPath>
    </defs>
</svg>